#!OML:ASF F:\twosubjects\two\Thursday\Session 1\Rory.ASF
:FULLY-SPECIFIED
:DEGREES
660
root -1.68136 18.3062 5.83354 -174.553 -46.0631 176.981
lowerback -0.635249 -0.719787 -0.754953
upperback -0.952545 -0.970609 -0.505121
thorax -0.61488 -0.486486 -0.094615
lowerneck 2.16873 -12.7453 -9.47189
upperneck 13.3442 -21.8104 18.9836
head 6.86134 -10.8122 5.92875
rclavicle 2.26552e-014 -4.77083e-015
rhumerus -40.6063 -17.7449 -77.1433
rradius 33.6022
rwrist 10.1205
rhand -15.789 11.3376
rfingers 7.12502
rthumb 10.4037 -18.385
lclavicle 2.26552e-014 -4.77083e-015
lhumerus -35.1571 -0.235014 78.9064
lradius 47.385
lwrist -16.1395
lhand -10.0105 27.5509
lfingers 7.12502
lthumb 15.9735 416.912
rfemur -19.8545 3.28994 16.3683
rtibia 35.2254
rfoot -14.4334 -13.268
rtoes 4.74029
lfemur 2.13821 0.424911 -14.7645
ltibia 22.5642
lfoot -19.0589 17.3029
ltoes -6.14968
661
root -1.68755 18.3148 5.75304 -174.659 -45.7172 177.073
lowerback -0.593592 0.0781182 0.109703
upperback -1.40598 0.063994 -1.51157
thorax -1.1048 0.0102674 -1.60968
lowerneck 4.12835 -13.0509 -7.99668
upperneck 12.8204 -22.5576 19.5556
head 6.38309 -11.3061 5.98708
rclavicle -9.7882e-015 2.16675e-014
rhumerus -42.1564 -20.2251 -77.4002
rradius 33.9226
rwrist 10.5969
rhand -12.7876 7.53292
rfingers 7.12502
rthumb 13.2979 -22.0228
lclavicle -9.7882e-015 2.16675e-014
lhumerus -35.7284 -2.78345 78.651
lradius 46.5568
lwrist -16.9937
lhand -8.98445 27.7658
lfingers 7.12502
lthumb 16.9614 417.045
rfemur -19.5846 3.36036 16.7245
rtibia 35.1053
rfoot -14.0444 -13.5593
rtoes 2.51659
lfemur 1.96308 0.806804 -14.5104
ltibia 23.3082
lfoot -17.9408 17.6756
ltoes -9.03263
662
root -1.6928 18.3236 5.67696 -174.352 -45.3569 176.892
lowerback -0.816325 -0.0942348 -0.594147
upperback -1.65547 -0.16995 -1.27501
thorax -1.23952 -0.100112 -0.971752
lowerneck 4.64239 -12.6855 -8.05502
upperneck 13.2397 -22.137 19.2275
head 6.32731 -11.149 5.98677
rclavicle -3.25665e-015 -1.10325e-014
rhumerus -41.7802 -19.1872 -77.9358
rradius 33.6207
rwrist 10.6656
rhand -11.8605 6.26802
rfingers 7.12502
rthumb 14.1915 -23.2272
lclavicle -3.25665e-015 -1.10325e-014
lhumerus -36.5868 -1.48952 78.6972
lradius 45.8099
lwrist -18.1803
lhand -8.20353 28.356
lfingers 7.12502
lthumb 17.713 417.569
rfemur -19.5527 3.13662 16.7732
rtibia 34.9094
rfoot -13.976 -13.1854
rtoes 2.29322
lfemur 1.36835 1.35819 -14.4564
ltibia 24.3648
lfoot -17.0541 17.6208
ltoes -11.7596
663
root -1.6954 18.3394 5.60132 -174.111 -45.2475 176.985
lowerback -1.12863 -0.428726 -0.726952
upperback -1.74111 -0.610764 -1.02496
thorax -1.15361 -0.317483 -0.64224
lowerneck 4.27599 -12.3971 -8.35344
upperneck 14.0439 -21.8034 18.7252
head 6.56518 -10.9636 5.86885
rclavicle 5.06086e-014 7.05686e-015
rhumerus -40.9186 -18.3002 -78.5339
rradius 33.1536
rwrist 10.9432
rhand -12.0088 6.90305
rfingers 7.12502
rthumb 14.0485 -22.6022
lclavicle 5.06086e-014 7.05686e-015
lhumerus -37.0112 0.222639 78.6684
lradius 44.7735
lwrist -18.7655
lhand -8.94778 28.4607
lfingers 7.12502
lthumb 16.9967 417.737
rfemur -19.5815 2.85411 17.0153
rtibia 34.6305
rfoot -14.1282 -12.8301
rtoes 2.97777
lfemur 0.47003 1.70839 -14.1053
ltibia 25.7021
lfoot -16.5349 16.9349
ltoes -11.5272
664
root -1.69647 18.3562 5.52057 -174.493 -45.238 177.384
lowerback -1.10389 -0.856705 -0.495365
upperback -1.54374 -1.16942 -0.723643
thorax -0.966704 -0.594039 -0.465613
lowerneck 3.3286 -12.0962 -8.75495
upperneck 15.0041 -21.4157 18.2094
head 6.95794 -10.7111 5.71828
rclavicle 2.99462e-014 -3.10601e-015
rhumerus -39.5602 -17.4724 -79.2045
rradius 32.5384
rwrist 11.6416
rhand -12.9349 8.66476
rfingers 7.12502
rthumb 13.156 -20.9002
lclavicle 2.99462e-014 -3.10601e-015
lhumerus -37.1403 1.94997 78.7357
lradius 43.4061
lwrist -17.6418
lhand -11.9395 27.3596
lfingers 7.12502
lthumb 14.1153 416.86
rfemur -19.0522 3.02473 17.5425
rtibia 34.3033
rfoot -14.3167 -12.9174
rtoes 3.71875
lfemur -0.0977606 1.85354 -13.4452
ltibia 27.2718
lfoot -16.3911 16.1528
ltoes -10.6054
665
root -1.69661 18.3683 5.44669 -175.05 -45.0141 177.917
lowerback -0.929349 -1.74125 -1.1011
upperback -1.23733 -2.32811 0.38763
thorax -0.686199 -1.15901 1.00473
lowerneck 1.74169 -11.4485 -9.70785
upperneck 16.2669 -20.2554 16.9831
head 7.42357 -10.08 5.47213
rclavicle -3.33927e-014 -9.14409e-015
rhumerus -37.434 -14.6265 -79.8236
rradius 31.8861
rwrist 12.569
rhand -14.5104 10.6503
rfingers 7.12502
rthumb 11.6369 -19.0065
lclavicle -3.33927e-014 -9.14409e-015
lhumerus -37.5075 6.15532 78.6412
lradius 42.3398
lwrist -18.6581
lhand -11.8789 27.2018
lfingers 7.12502
lthumb 14.1737 416.698
rfemur -18.4911 3.21748 18.1361
rtibia 33.94
rfoot -14.5393 -12.7372
rtoes 4.99459
lfemur -0.677146 2.08396 -12.7506
ltibia 29.0111
lfoot -15.9901 15.5871
ltoes -10.0554
666
root -1.69495 18.3754 5.38698 -175.037 -44.8046 178.231
lowerback -1.02964 -2.494 -1.41949
upperback -0.96434 -3.32655 1.22537
thorax -0.258001 -1.65916 2.01887
lowerneck -0.444762 -10.9904 -10.4069
upperneck 17.6966 -19.2765 15.7074
head 8.06637 -9.51131 5.11856
rclavicle 1.55052e-014 8.74653e-015
rhumerus -35.6582 -11.899 -80.6059
rradius 31.354
rwrist 11.5448
rhand -17.7019 15.3093
rfingers 7.12502
rthumb 8.55805 -14.4973
lclavicle 1.55052e-014 8.74653e-015
lhumerus -37.6206 9.90641 78.5219
lradius 41.2776
lwrist -19.5334
lhand -12.2895 26.6769
lfingers 7.12502
lthumb 13.778 416.201
rfemur -18.481 2.9515 18.5207
rtibia 33.5888
rfoot -14.3722 -12.2997
rtoes 5.34647
lfemur -1.81553 2.54249 -12.2671
ltibia 30.7669
lfoot -14.7256 14.9759
ltoes -9.57483
667
root -1.69292 18.3805 5.32844 -174.871 -44.6065 178.167
lowerback -0.97984 -3.09466 -1.69784
upperback -0.638959 -4.12906 1.70366
thorax 0.138606 -2.06737 2.64255
lowerneck -2.70847 -10.6313 -10.8595
upperneck 19.0456 -18.4688 14.7592
head 8.75582 -9.02602 4.82525
rclavicle -1.77664e-014 -2.38542e-015
rhumerus -34.3264 -9.7438 -81.3633
rradius 31.4595
rwrist 11.382
rhand -19.7592 18.0569
rfingers 7.12502
rthumb 6.57225 -11.8211
lclavicle -1.77664e-014 -2.38542e-015
lhumerus -37.4189 12.3343 78.9605
lradius 40.5809
lwrist -18.4574
lhand -15.1049 30.2421
lfingers 7.12502
lthumb 11.0636 419.931
rfemur -18.3381 2.72855 18.6262
rtibia 33.2569
rfoot -14.1302 -12.0094
rtoes 5.23638
lfemur -2.82659 3.10038 -12.0181
ltibia 32.4764
lfoot -13.664 14.1899
ltoes -8.34394
668
root -1.69081 18.3883 5.25935 -175.192 -44.4001 178.213
lowerback -0.643338 -3.47999 -1.79325
upperback -0.196804 -4.65073 1.9584
thorax 0.463174 -2.33814 2.95062
lowerneck -4.56018 -10.3806 -11.1057
upperneck 20.1125 -17.9243 14.2403
head 9.35604 -8.68166 4.64854
rclavicle -5.87906e-014 -3.97569e-015
rhumerus -33.1856 -8.47658 -82.0047
rradius 31.4063
rwrist 11.941
rhand -22.0534 20.622
rfingers 7.12502
rthumb 4.35721 -9.31313
lclavicle -5.87906e-014 -3.97569e-015
lhumerus -36.9791 14.8914 78.7581
lradius 39.3138
lwrist -18.9538
lhand -16.4456 31.0338
lfingers 7.12502
lthumb 9.77025 420.787
rfemur -17.6734 2.60026 18.879
rtibia 32.8829
rfoot -14.0413 -11.8168
rtoes 5.06416
lfemur -3.33936 3.38297 -11.6434
ltibia 34.1843
lfoot -12.9387 13.6738
ltoes -5.78169
669
root -1.68765 18.4023 5.18679 -175.807 -44.2747 178.603
lowerback -0.368561 -3.65654 -1.60378
upperback 0.293773 -4.90071 2.14345
thorax 0.829471 -2.47553 3.02847
lowerneck -6.22124 -10.2965 -11.0433
upperneck 21.0402 -17.6471 13.7388
head 9.89792 -8.46297 4.40939
rclavicle 1.33434e-013 1.59028e-015
rhumerus -32.1026 -7.91288 -82.5094
rradius 31.2152
rwrist 12.115
rhand -25.4642 25.3407
rfingers 7.12502
rthumb 1.06325 -4.6364
lclavicle 1.33434e-013 1.59028e-015
lhumerus -36.3679 16.6084 78.733
lradius 38.0754
lwrist -19.6994
lhand -15.1831 31.3317
lfingers 7.12502
lthumb 10.9881 421.024
rfemur -16.8781 2.59821 19.4371
rtibia 32.4362
rfoot -13.9526 -11.8185
rtoes 5.11865
lfemur -3.82329 3.43709 -11.0095
ltibia 35.9055
lfoot -12.0618 13.4826
ltoes -3.27599
670
root -1.68437 18.4186 5.1277 -176.282 -44.0423 179.177
lowerback -0.239109 -3.65519 -1.14555
upperback 0.686139 -4.918 2.31063
thorax 1.13699 -2.49323 2.93783
lowerneck -7.674 -10.3002 -10.8901
upperneck 21.7613 -17.494 13.2834
head 10.3513 -8.3094 4.16806
rclavicle -1.94809e-014 -1.11319e-014
rhumerus -31.0892 -7.4544 -82.9565
rradius 31.1566
rwrist 11.6324
rhand -17.908 17.4808
rfingers 7.12502
rthumb 8.35909 -12.3338
lclavicle -1.94809e-014 -1.11319e-014
lhumerus -35.7169 18.0517 78.6426
lradius 37.2145
lwrist -22.7769
lhand -9.5454 32.323
lfingers 7.12502
lthumb 16.4214 421.648
rfemur -16.4127 2.85374 20.0905
rtibia 31.9632
rfoot -13.8753 -11.9783
rtoes 4.63844
lfemur -4.66253 3.71745 -10.2879
ltibia 37.633
lfoot -11.093 13.6299
ltoes -4.83027
